<svg width="22" height="27" viewBox="0 0 22 27" fill="none" xmlns="http://www.w3.org/2000/svg">
<path d="M4.70703 20.9999V16.0649H6.47103C6.83503 16.0649 7.15936 16.1373 7.44403 16.2819C7.7287 16.4266 7.95036 16.6273 8.10903 16.8839C8.27236 17.1406 8.35403 17.4346 8.35403 17.7659C8.35403 18.0926 8.27236 18.3843 8.10903 18.6409C7.95036 18.8976 7.72637 19.1006 7.43703 19.2499C7.15236 19.3946 6.83036 19.4669 6.47103 19.4669H5.68703V20.9999H4.70703ZM6.47103 18.5919C6.7417 18.5919 6.95636 18.5173 7.11503 18.3679C7.2737 18.2139 7.35303 18.0133 7.35303 17.7659C7.35303 17.5186 7.2737 17.3203 7.11503 17.1709C6.95636 17.0169 6.7417 16.9399 6.47103 16.9399H5.68703V18.5919H6.47103Z" fill="#050B15"/>
<path d="M9.01367 20.9999V16.0649H10.9597C11.4497 16.0649 11.8907 16.1699 12.2827 16.3799C12.6747 16.5899 12.9803 16.8816 13.1997 17.2549C13.419 17.6283 13.5287 18.0529 13.5287 18.5289C13.5287 19.0049 13.419 19.4319 13.1997 19.8099C12.9803 20.1833 12.6747 20.4749 12.2827 20.6849C11.8907 20.8949 11.4497 20.9999 10.9597 20.9999H9.01367ZM10.9597 20.1039C11.2583 20.1039 11.5243 20.0386 11.7577 19.9079C11.9957 19.7726 12.18 19.5859 12.3107 19.3479C12.4413 19.1099 12.5067 18.8369 12.5067 18.5289C12.5067 18.2256 12.4413 17.9549 12.3107 17.7169C12.18 17.4789 11.9957 17.2946 11.7577 17.1639C11.5243 17.0286 11.2583 16.9609 10.9597 16.9609H9.99367V20.1039H10.9597Z" fill="#050B15"/>
<path d="M15.271 20.9999H14.291V16.0649H17.504V16.9609H15.271V18.1859H17.28V19.0819H15.271V20.9999Z" fill="#050B15"/>
<path d="M18 26H4C2.34315 26 1 24.6569 1 23V4C1 2.34315 2.34315 1 4 1H13.6335C13.9099 1 14.174 1.11441 14.3631 1.31606L20.7295 8.10695C20.9033 8.2923 21 8.53683 21 8.79089V23C21 24.6569 19.6569 26 18 26Z" stroke="black" stroke-width="2"/>
<path d="M13 1V7C13 8.10457 13.8954 9 15 9H21" stroke="black" stroke-width="2"/>
</svg>
