<svg width="22" height="27" viewBox="0 0 22 27" fill="none" xmlns="http://www.w3.org/2000/svg">
<path d="M4.04831 20.6268H3L4.44952 18.2972L3.11648 16.0647H4.19068L5.07721 17.6631H5.19369L6.12552 16.0647H7.17383L5.83432 18.2455L7.28384 20.6268H6.22259L5.22604 18.8861H5.10957L4.04831 20.6268Z" fill="#050B15"/>
<path d="M10.8674 20.6268H7.79364V16.0647H8.69959V19.7985H10.8674V20.6268Z" fill="#050B15"/>
<path d="M12.8026 20.6915C12.3712 20.6915 11.9873 20.5729 11.6508 20.3356C11.3186 20.0983 11.0986 19.7813 10.9907 19.3844L11.8708 19.2355C12.0045 19.4512 12.1383 19.6109 12.272 19.7144C12.4058 19.8136 12.5869 19.8632 12.8156 19.8632C13.0054 19.8632 13.1629 19.8222 13.288 19.7403C13.4131 19.654 13.4756 19.5354 13.4756 19.3844C13.4756 19.2204 13.4045 19.0953 13.2621 19.009C13.124 18.9184 12.9083 18.8279 12.615 18.7373C12.3259 18.6423 12.0865 18.5496 11.8967 18.459C11.7112 18.3684 11.5494 18.2304 11.4114 18.0449C11.2776 17.8594 11.2108 17.6178 11.2108 17.3201C11.2108 17.0483 11.2776 16.8132 11.4114 16.6148C11.5451 16.412 11.7263 16.2588 11.9549 16.1553C12.1879 16.0518 12.4446 16 12.725 16C13.1348 16 13.4864 16.11 13.7798 16.33C14.0731 16.5457 14.2802 16.8412 14.401 17.2166L13.5403 17.3589C13.3721 17.0052 13.1133 16.8283 12.7638 16.8283C12.5913 16.8283 12.4424 16.8671 12.3173 16.9448C12.1965 17.0224 12.1361 17.1346 12.1361 17.2813C12.1361 17.3934 12.1728 17.4883 12.2461 17.566C12.3195 17.6393 12.4122 17.7019 12.5244 17.7537C12.6366 17.8011 12.7962 17.8594 13.0032 17.9284C13.2923 18.0233 13.5296 18.1182 13.7151 18.2131C13.9006 18.308 14.0602 18.4482 14.1939 18.6337C14.332 18.8192 14.401 19.0608 14.401 19.3585C14.401 19.6303 14.3277 19.8675 14.181 20.0703C14.0386 20.2731 13.8445 20.4284 13.5986 20.5362C13.357 20.6398 13.0917 20.6915 12.8026 20.6915Z" fill="#050B15"/>
<path d="M15.7645 20.6268H14.7162L16.1657 18.2972L14.8326 16.0647H15.9068L16.7934 17.6631H16.9098L17.8417 16.0647H18.89L17.5505 18.2455L19 20.6268H17.9387L16.9422 18.8861H16.8257L15.7645 20.6268Z" fill="#050B15"/>
<path d="M18 26H4C2.34315 26 1 24.6569 1 23V4C1 2.34315 2.34315 1 4 1H13.6335C13.9099 1 14.174 1.11441 14.3631 1.31606L20.7295 8.10695C20.9033 8.2923 21 8.53683 21 8.79089V23C21 24.6569 19.6569 26 18 26Z" stroke="black" stroke-width="2"/>
<path d="M13 1V7C13 8.10457 13.8954 9 15 9H21" stroke="black" stroke-width="2"/>
</svg>
