<svg width="22" height="27" viewBox="0 0 22 27" fill="none" xmlns="http://www.w3.org/2000/svg">
<path d="M3.91797 21.0001V16.0651H5.68197C6.04597 16.0651 6.3703 16.1375 6.65497 16.2821C6.93964 16.4268 7.1613 16.6275 7.31997 16.8841C7.4833 17.1408 7.56497 17.4348 7.56497 17.7661C7.56497 18.0928 7.4833 18.3845 7.31997 18.6411C7.1613 18.8978 6.9373 19.1008 6.64797 19.2501C6.3633 19.3948 6.0413 19.4671 5.68197 19.4671H4.89797V21.0001H3.91797ZM5.68197 18.5921C5.95264 18.5921 6.1673 18.5175 6.32597 18.3681C6.48464 18.2141 6.56397 18.0135 6.56397 17.7661C6.56397 17.5188 6.48464 17.3205 6.32597 17.1711C6.1673 17.0171 5.95264 16.9401 5.68197 16.9401H4.89797V18.5921H5.68197Z" fill="#050B15"/>
<path d="M9.17661 21.0001H8.22461V16.0651H9.63861L11.6196 19.7751H11.7386V16.0651H12.6906V21.0001H11.2766L9.29561 17.2901H9.17661V21.0001Z" fill="#050B15"/>
<path d="M15.8772 18.3121H18.3972V18.5151C18.3972 19.0145 18.2969 19.4578 18.0962 19.8451C17.8955 20.2325 17.6109 20.5335 17.2422 20.7481C16.8782 20.9628 16.4559 21.0701 15.9752 21.0701C15.4899 21.0701 15.0559 20.9628 14.6732 20.7481C14.2905 20.5335 13.9919 20.2348 13.7772 19.8521C13.5625 19.4648 13.4552 19.0238 13.4552 18.5291C13.4552 18.0391 13.5602 17.6028 13.7702 17.2201C13.9802 16.8328 14.2719 16.5318 14.6452 16.3171C15.0185 16.1025 15.4455 15.9951 15.9262 15.9951C16.4489 15.9951 16.9039 16.1281 17.2912 16.3941C17.6832 16.6601 17.9609 17.0195 18.1242 17.4721L17.1512 17.6401C16.8945 17.1408 16.4932 16.8911 15.9472 16.8911C15.6579 16.8911 15.4012 16.9611 15.1772 17.1011C14.9532 17.2365 14.7805 17.4301 14.6592 17.6821C14.5379 17.9295 14.4772 18.2118 14.4772 18.5291C14.4772 18.8511 14.5402 19.1358 14.6662 19.3831C14.7969 19.6305 14.9742 19.8241 15.1982 19.9641C15.4269 20.1041 15.6859 20.1741 15.9752 20.1741C16.3065 20.1741 16.5912 20.0831 16.8292 19.9011C17.0672 19.7191 17.2375 19.4718 17.3402 19.1591H15.8772V18.3121Z" fill="#050B15"/>
<path d="M18 26H4C2.34315 26 1 24.6569 1 23V4C1 2.34315 2.34315 1 4 1H13.6335C13.9099 1 14.174 1.11441 14.3631 1.31606L20.7295 8.10695C20.9033 8.2923 21 8.53683 21 8.79089V23C21 24.6569 19.6569 26 18 26Z" stroke="black" stroke-width="2"/>
<path d="M13 1V7C13 8.10457 13.8954 9 15 9H21" stroke="black" stroke-width="2"/>
</svg>
